<svg data-v-0dd9719b="" version="1.0" xmlns="http://www.w3.org/2000/svg" xmlns:xlink="http://www.w3.org/1999/xlink" width="100%" height="100%" viewBox="0 0 340.000000 250.000000" preserveAspectRatio="xMidYMid meet" color-interpolation-filters="sRGB" style="margin: auto;"> <rect data-v-0dd9719b="" x="0" y="0" width="100%" height="100%" fill="#fff" fill-opacity="1" class="background"></rect> <rect data-v-0dd9719b="" x="0" y="0" width="100%" height="100%" fill="url(#watermark)" fill-opacity="1" class="watermarklayer"></rect> <g data-v-0dd9719b="" fill="#333" class="icon-text-wrapper icon-svg-group iconsvg" transform="translate(49.224998474121094,90.35796737670898)"><g class="iconsvg-imagesvg" transform="translate(0,0)"><g><rect fill="#333" fill-opacity="0" stroke-width="2" x="0" y="0" width="60" height="69.28406466512702" class="image-rect"></rect> <svg x="0" y="0" width="60" height="69.28406466512702" filtersec="colorsb4244318277" class="image-svg-svg primary" style="overflow: visible;"><svg xmlns="http://www.w3.org/2000/svg" viewBox="0 0 86.60000610351562 100"><g fill-rule="evenodd"><path d="M5.91 21.59L86.6 68.18v-9.35l-46.26-26.7a5.91 5.91 0 0 1 5.92-10.24L86.6 45.18V25L65 12.5 43.3 0 21.65 12.5z" fill="#6dc9b7"></path><path d="M80.69 78.41L0 31.82v11.36l46.26 26.71a5.91 5.91 0 1 1-5.92 10.22L0 56.82V75l21.65 12.5L43.3 100 65 87.5z" fill="#111f4a"></path></g></svg></svg> <!----></g></g> <g transform="translate(67,5.835783004760742)"><g data-gra="path-name" fill-rule="" class="tp-name iconsvg-namesvg" transform="translate(0,0)"><g transform="scale(1)"><g><path d="M35.1-1.57L35.1-27.77 40.68-27.09Q40.68-27.09 40.68 2.38L40.68 2.38Q40.68 2.79 39.1 3.42L39.1 3.42Q37.57 4.05 36.09 4.05L36.09 4.05 35.1 4.05 35.1-0.27 4.14-0.27 4.14-27.77 9.72-27.04 9.72-1.57 19.48-1.57 19.48-37.39 25.11-36.67 25.11-1.57 35.1-1.57ZM65.2-24.84L69.66-24.84 69.66-32.76 65.2-32.76 65.2-24.84ZM80.37-14.13L80.37-23.54 74.56-23.54 74.56-14.76Q74.56-14.22 74.7-14.04L74.7-14.04Q74.88-13.9 75.47-13.9L75.47-13.9 78.48-13.9Q78.97-13.9 79.52-13.99L79.52-13.99Q79.92-13.99 80.37-14.13L80.37-14.13ZM54.72-23.54L54.72-1.89 80.37-1.89 80.37-9.49Q78.97-9.18 76.36-9.18L76.36-9.18 73.8-9.18Q71.23-9.18 70.42-10.04L70.42-10.04Q69.66-10.93 69.66-13.37L69.66-13.37 69.66-23.54 65.2-23.54Q65.16-21.46 64.98-19.84 64.8-18.22 64.17-16.2 63.54-14.17 62.5-12.55 61.47-10.93 59.58-9.27L59.58-9.27Q57.69-7.65 55.13-6.39L55.13-6.39 54.77-6.84Q58-10.04 59.09-14.08L59.09-14.08Q60.16-18.18 60.21-23.54L60.21-23.54 54.72-23.54ZM46.4-34.06L88.92-34.06 88.92-32.76 74.56-32.76 74.56-24.84 85.72-24.84 85.72 1.84Q85.72 2.02 85.19 2.34L85.19 2.34Q84.69 2.65 83.61 2.92L83.61 2.92Q82.53 3.24 81.27 3.24L81.27 3.24 80.37 3.24 80.37-0.58 54.72-0.58 54.72 2.07Q54.72 2.25 54.23 2.56 53.73 2.88 52.7 3.15L52.7 3.15Q51.7 3.42 50.49 3.42L50.49 3.42 49.55 3.42 49.55-27 55.22-24.84 60.21-24.84 60.21-32.76 46.8-32.76 46.4-34.06ZM110.03-20.38L110.03-25.11 104.36-25.11Q106.42-24.57 107.28-23.58 108.13-22.59 107.91-21.73 107.69-20.88 106.83-20.38L106.83-20.38 110.03-20.38ZM118.31-25.11L118.31-25.11 114.88-25.11 114.88-20.38 116.78-20.38Q117.58-22.54 118.31-25.11ZM97.92-12.11L102.91-12.11 104.72-14.13Q106.61-12.82 108-11.7L108-11.7Q106.47-14.4 103-16.88L103-16.88Q101.03-14.4 97.92-12.11L97.92-12.11ZM133.97-13.68L133.97-13.68 133.92-13.05Q132.84-12.73 132.12-11.74L132.12-11.74Q131.44-10.8 131.35-9.58L131.35-9.58Q128.43-10.71 126-12.69L126-12.69Q123.57-14.71 122.27-17.1L122.27-17.1Q120.42-14.58 116.73-12.2L116.73-12.2 126.9-12.2 126.9-10.89 123.12-10.89 123.12-7.51 131.49-7.51 131.49-6.25 123.12-6.25 123.12 0.85 123.88 0.85Q124.92-2.56 125.5-5.89L125.5-5.89 128.84-4.46Q127.53-1.8 124.97 0.85L124.97 0.85 133.74 0.85 133.74 2.16 108.94 2.16 108.59 0.85 118.58 0.85 118.58-6.25 111.83-6.25 111.47-7.51 118.58-7.51 118.58-10.89 115.33-10.89 115.25-11.25Q111.87-9.36 109.31-8.55L109.31-8.55 108.94-9.13Q112-10.93 114.84-13.81L114.84-13.81Q117.67-16.74 118.66-19.13L118.66-19.13 100.13-19.13 105.25-18.09Q105.12-17.59 104.4-17.37L104.4-17.37Q109.8-16.65 110.84-14.17L110.84-14.17Q111.47-12.78 110.38-11.88L110.38-11.88Q109.35-10.98 108-11.74L108-11.74 108.22-11.56Q108.09-10.84 107.1-10.84L107.1-10.84Q109.31-8.59 110.52-7.33L110.52-7.33Q110.34-6.61 109.39-6.61L109.39-6.61 103.95-6.61 103.95-1.03 104.63-1.08Q105.48-3.82 106.06-6.34L106.06-6.34 109.17-4.95Q107.69-2.48 106.25-1.21L106.25-1.21 110.88-1.62 110.97-0.9Q107.14 0.14 95.17 2.65L95.17 2.65Q94.91 3.33 94.14 3.6L94.14 3.6 91.84-0.22Q93.87-0.32 99.86-0.72L99.86-0.72 99.86-6.61 93.42-6.61 93.06-7.88 99.86-7.88 99.86-10.84 97.02-10.84 96.89-11.34Q93.83-9.31 91.39-8.37L91.39-8.37 90.99-8.82Q93.42-10.8 95.58-13.68L95.58-13.68Q97.78-16.56 98.91-19.13L98.91-19.13 94.09-19.13 93.69-20.38 104.36-20.38Q103.81-20.7 103.64-20.88L103.64-20.88Q103.68-23.18 102.38-25.11L102.38-25.11 97.83-25.11 97.47-26.41 110.03-26.41 110.03-28.75 104.31-28.75 104-29.97 119.88-30.06 119.88-28.75 114.88-28.75 114.88-26.41 126.54-26.41 126.54-25.11 119.97-25.11 124.2-23.8Q123.93-22.95 122.49-22.99L122.49-22.99Q120.64-21.6 118.48-20.38L118.48-20.38 131.44-20.38 131.44-19.13 120.11-19.13 124.38-18.27Q124.25-17.64 122.81-17.5L122.81-17.5Q125.91-14.8 133.97-13.68ZM112.5-5.44L112.5-5.44 113-5.71Q117.13-4.46 117.67-2.16L117.67-2.16Q118.03-0.63 116.82 0.14L116.82 0.14Q115.42 0.99 114.08-0.27L114.08-0.27Q114.08-2.75 112.5-5.44ZM94.32-5.85L94.32-5.85 94.81-6.12Q98.59-5.04 98.95-2.97L98.95-2.97Q99.18-1.67 98.01-1.03L98.01-1.03Q96.8-0.4 95.63-1.48L95.63-1.48Q95.72-3.78 94.32-5.85ZM105.3-7.88L107.19-10.35 103.95-10.84 103.95-7.88 105.3-7.88ZM104.22-30.06L104.22-30.06Q97.74-27.27 91.75-26.19L91.75-26.19 91.62-26.77Q97.16-28.75 102.24-32.09L102.24-32.09Q107.33-35.46 109.58-38.61L109.58-38.61 116.1-36.67Q115.92-35.87 113.98-35.68L113.98-35.68Q121.5-32.35 133.69-32.22L133.69-32.22 133.69-31.5Q131.22-30.6 130.77-27L130.77-27Q119.16-29.34 113.31-35.23L113.31-35.23Q109.8-32.53 104.22-30.06ZM154.66-17.59L154.66-28.75 142.56-28.75Q142.78-26.59 142.02-25.06L142.02-25.06Q141.3-23.54 140.04-22.95L140.04-22.95Q138.91-22.36 137.75-22.77 136.57-23.18 136.22-24.34L136.22-24.34Q135.72-26.5 138.19-27.58L138.19-27.58Q139.41-28.17 140.22-29.47L140.22-29.47Q141.07-30.78 140.9-32.31L140.9-32.31 141.53-32.35Q142.06-31.09 142.34-30.02L142.34-30.02 154.66-30.02 154.66-33.62 142.65-33.62 142.29-34.88 173.2-34.88 173.2-33.62 159.88-33.62 159.88-30.02 177.53-30.02 177.53-27.72Q175.09-25.2 171.76-23.31L171.76-23.31 171.31-23.63Q171.85-25.7 172.26-28.75L172.26-28.75 159.88-28.75 159.88-18.68Q159.88-18.54 159.39-18.27L159.39-18.27Q158.9-18.04 157.86-17.82 156.82-17.59 155.61-17.59L155.61-17.59 154.66-17.59ZM160.56-21.06L160.56-21.06 160.83-21.69Q167.99-22.81 170.87-20.25L170.87-20.25Q172.39-18.95 171.81-17.59L171.81-17.59Q171.27-16.47 169.69-16.61L169.69-16.61Q168.07-17.77 165.38-19.08L165.38-19.08Q162.72-20.38 160.56-21.06ZM168.16-28.21L168.16-28.21 171.27-23.89Q170.78-23.54 169.92-24.12L169.92-24.12Q166-23.18 161.19-22.9L161.19-22.9 160.97-23.45Q164.7-25.43 168.16-28.21ZM144.18-15.88L144.18-15.88 142.29-20.75Q145.84-20.97 153.72-21.96L153.72-21.96 153.81-21.38Q149.63-19.04 145.35-16.96L145.35-16.96Q145.03-16.02 144.18-15.88ZM143.01-25.65L143.01-25.65 143.24-26.32Q149.31-27.9 151.92-25.79L151.92-25.79Q153.31-24.66 152.78-23.36L152.78-23.36Q152.37-22.23 150.84-22.23L150.84-22.23Q149.44-23.18 147.15-24.16L147.15-24.16Q144.85-25.2 143.01-25.65ZM163.22-11.83L163.22-11.83 146.84-11.83Q150.21-7.92 157.28-5.31L157.28-5.31Q161.15-8.1 163.22-11.83ZM178.16-13.09L178.16-11.83 170.59-11.83Q167.76-7.33 162.27-3.78L162.27-3.78Q169.47-1.93 178.69-1.57L178.69-1.57 178.65-0.99Q175.45-0.09 174.82 3.65L174.82 3.65Q164.38 2.21 157.5-1.21L157.5-1.21Q149.09 2.52 136.75 4L136.75 4 136.57 3.51Q146.93 1.08 154.08-3.15L154.08-3.15Q148.72-6.61 145.71-11.83L145.71-11.83 138.38-11.83 138.01-13.09 156.15-13.09Q154.66-15.48 152.59-17.01L152.59-17.01 152.95-17.32Q154.8-17.55 156.19-17.32L156.19-17.32Q157.63-17.1 158.4-16.61L158.4-16.61Q159.16-16.16 159.53-15.52L159.53-15.52Q159.93-14.89 159.88-14.22L159.88-14.22Q159.84-13.59 159.48-13.09L159.48-13.09 178.16-13.09Z" transform="translate(-4.139999866485596, 38.61000061035156)"></path></g> <!----> <!----> <!----> <!----> <!----> <!----> <!----></g></g> <g data-gra="path-slogan" fill-rule="" class="tp-slogan iconsvg-slogansvg" fill="#333" transform="translate(40.18917465209961,48.65999984741211)"><!----> <!----> <g transform="scale(1, 1)"><g transform="scale(1)"><path d="M7.17-6.09L7.17-6.09L6.09-6.09Q6-7.73 3.94-7.83L3.94-7.83Q2.02-7.78 2.02-6.33L2.02-6.33Q2.02-5.39 3.05-5.25L3.05-5.25L5.48-4.69Q7.41-4.22 7.41-2.34L7.41-2.34Q7.36 0.05 4.03 0.14L4.03 0.14Q2.20 0.14 1.45-0.61L1.45-0.61Q0.52-1.31 0.56-2.77L0.56-2.77L1.69-2.77Q1.73-0.80 4.03-0.75L4.03-0.75Q6.28-0.80 6.33-2.20L6.33-2.20Q6.52-3.38 4.45-3.75L4.45-3.75L2.67-4.13Q0.84-4.64 0.84-6.19L0.84-6.19Q0.98-8.72 3.84-8.81L3.84-8.81Q7.08-8.81 7.17-6.09ZM10.03-5.06L14.53-5.06L14.53-8.58L15.70-8.58L15.70 0L14.53 0L14.53-3.98L10.03-3.98L10.03 0L8.86 0L8.86-8.58L10.03-8.58L10.03-5.06ZM23.16 0L22.31-2.48L18.84-2.48L17.95 0L16.78 0L20.02-8.58L21.33-8.58L24.42 0L23.16 0ZM20.58-7.31L19.22-3.52L21.89-3.52L20.63-7.31L20.58-7.31ZM26.86-8.58L31.17-1.64L31.17-8.58L32.30-8.58L32.30 0L30.98 0L26.63-6.94L26.58-6.94L26.58 0L25.45 0L25.45-8.58L26.86-8.58ZM40.83-8.58L37.92-4.41L40.97 0L39.52 0L37.17-3.52L34.83 0L33.42 0L36.52-4.41L33.61-8.58L35.06-8.58L37.22-5.30L39.42-8.58L40.83-8.58ZM42.23-8.58L43.41-8.58L43.41 0L42.23 0L42.23-8.58ZM55.45-8.58L52.55-4.41L55.59 0L54.14 0L51.80-3.52L49.45 0L48.05 0L51.14-4.41L48.23-8.58L49.69-8.58L51.84-5.30L54.05-8.58L55.45-8.58ZM56.86-8.58L58.03-8.58L58.03 0L56.86 0L56.86-8.58ZM61.41-8.58L65.72-1.64L65.72-8.58L66.84-8.58L66.84 0L65.53 0L61.17-6.94L61.13-6.94L61.13 0L60 0L60-8.58L61.41-8.58ZM73.41-7.13L73.36-7.13L71.39 0L70.17 0L67.92-8.58L69.14-8.58L70.78-1.59L70.83-1.59L72.75-8.58L74.02-8.58L75.94-1.59L75.98-1.59L77.58-8.58L78.84-8.58L76.59 0L75.38 0L73.41-7.13ZM81.23-1.03L86.39-1.03L86.39 0L80.06 0L80.06-8.58L86.30-8.58L86.30-7.59L81.23-7.59L81.23-4.92L85.92-4.92L85.92-3.89L81.23-3.89L81.23-1.03ZM89.30-8.58L93.61-1.64L93.61-8.58L94.73-8.58L94.73 0L93.42 0L89.06-6.94L89.02-6.94L89.02 0L87.89 0L87.89-8.58L89.30-8.58Z" transform="translate(-0.5602678571428572, 8.8125)"></path></g></g></g></g></g><defs v-gra="od"></defs></svg>